<svg xmlns="http://www.w3.org/2000/svg" width="53.598" height="37.632" viewBox="0 0 53.598 37.632">
  <path id="_30-communication_-_email_send_contact" data-name="30-communication - email send contact" d="M2345.875,2725.85l-49.479,16.662c-.025.014-.055.013-.081.027a1.5,1.5,0,0,1-1.518,0,1.56,1.56,0,0,1-.551-.6c-.005-.007-.012-.01-.015-.017s-.009-.035-.019-.052a1.671,1.671,0,0,1-.159-.469,1.467,1.467,0,0,1-.016-.245,1.69,1.69,0,0,1,.021-.342,248.066,248.066,0,0,0,.163-.5l5.249-16.918-5.249-14.81a26.25,26.25,0,0,0-.163-.5,1.619,1.619,0,0,1-.021-.34,1.327,1.327,0,0,1,.016-.246,1.608,1.608,0,0,1,.158-.467c.01-.018.009-.037.019-.052s.011-.011.015-.018a1.554,1.554,0,0,1,.551-.6,1.506,1.506,0,0,1,1.521,0c.025.013.054.012.078.027l49.479,16.663a1.531,1.531,0,0,1,.745,1.164,1.581,1.581,0,0,1,.015.242,1.434,1.434,0,0,1-.014.237A1.536,1.536,0,0,1,2345.875,2725.85Zm-47.749-15.586,4.09,11.541,32.809.886Zm4.1,14.674-4.264,13.742,38.1-12.83Z" transform="translate(-2293.536 -2705.629)" fill="#fff" stroke="#fff" stroke-linejoin="round" stroke-width="1"/>
</svg>
